<?xml version="1.0" standalone="no"?>
<!DOCTYPE svg PUBLIC "-//W3C//DTD SVG 20010904//EN"
 "http://www.w3.org/TR/2001/REC-SVG-20010904/DTD/svg10.dtd">
<svg version="1.0" xmlns="http://www.w3.org/2000/svg"
 width="1523.000000pt" height="495.000000pt" viewBox="0 0 1523.000000 495.000000"
 preserveAspectRatio="xMidYMid meet">

<g transform="translate(0.000000,495.000000) scale(0.100000,-0.100000)"
fill="#000000" stroke="none">
<path d="M2505 4919 c-1142 -80 -2012 -300 -2315 -585 -108 -102 -139 -193
-101 -294 51 -136 231 -267 524 -381 56 -21 103 -39 105 -39 2 0 2 19 0 42
l-3 42 -80 31 c-134 52 -226 106 -292 170 -107 105 -108 183 -4 285 256 250
1209 453 2413 513 37 1 69 5 70 7 2 3 2 53 0 113 l-3 107 -97 -1 c-53 -1 -151
-6 -217 -10z"/>
<path d="M1030 3571 c0 -38 0 -38 58 -54 125 -35 609 -127 669 -127 9 0 13 14
13 44 l0 44 -117 17 c-145 21 -468 81 -544 100 -78 20 -79 20 -79 -24z"/>
<path d="M2060 3396 c0 -25 2 -46 5 -46 3 0 77 -7 166 -15 89 -9 163 -14 166
-11 2 2 -15 27 -39 54 -41 48 -45 51 -94 51 -28 1 -85 4 -127 7 l-77 7 0 -47z"/>
<path d="M2805 3380 c3 -5 15 -10 26 -10 10 0 19 5 19 10 0 6 -12 10 -26 10
-14 0 -23 -4 -19 -10z"/>
<path d="M8460 3362 c0 -4 15 -22 33 -39 29 -28 40 -31 112 -36 59 -3 83 -1
93 9 17 19 15 22 -15 26 -20 2 -28 9 -28 23 0 18 -8 20 -97 23 -54 1 -98 -1
-98 -6z"/>
<path d="M8720 3326 l0 -44 128 -6 c70 -4 139 -9 155 -11 26 -4 27 -3 27 44
l0 48 -82 6 c-46 4 -116 7 -155 7 l-73 0 0 -44z"/>
<path d="M9332 3288 l3 -43 110 -11 c131 -14 478 -60 554 -74 30 -6 58 -10 63
-10 4 0 8 20 8 44 l0 44 -62 11 c-151 27 -588 81 -655 81 -22 0 -24 -3 -21
-42z"/>
<path d="M10380 3131 c0 -38 1 -39 43 -46 23 -3 51 -10 62 -14 11 -5 58 -19
105 -30 291 -74 527 -178 627 -275 107 -106 108 -185 2 -288 -126 -123 -449
-246 -879 -333 -394 -80 -873 -139 -1335 -165 -110 -6 -215 -14 -234 -16 l-34
-5 7 -52 c3 -29 6 -78 6 -109 l0 -58 73 0 c98 0 441 26 672 51 1065 114 1830
372 1966 664 26 57 25 146 -3 204 -66 137 -290 277 -624 391 -129 44 -409 120
-442 120 -7 0 -12 -16 -12 -39z"/>
<path d="M878 1236 c-109 -39 -166 -129 -155 -246 12 -138 96 -209 246 -210
61 0 82 5 122 27 46 24 48 27 33 44 -15 16 -17 16 -49 -5 -95 -65 -228 -27
-276 79 -32 69 -19 175 28 227 49 55 158 74 228 38 29 -15 42 -17 52 -9 21 18
16 25 -36 48 -57 24 -137 27 -193 7z"/>
<path d="M1378 1241 c-53 -17 -98 -53 -126 -99 -23 -41 -27 -58 -27 -127 0
-97 26 -152 93 -199 37 -26 54 -31 119 -35 91 -4 141 9 190 52 51 45 73 98 73
180 0 147 -76 227 -225 233 -38 2 -82 -1 -97 -5z m172 -53 c62 -32 93 -88 93
-172 0 -139 -99 -226 -223 -196 -110 26 -172 164 -125 278 44 103 152 142 255
90z"/>
<path d="M4708 1236 c-109 -39 -166 -129 -155 -246 12 -138 96 -209 246 -210
61 0 82 5 122 27 46 24 48 27 33 44 -15 16 -17 16 -49 -5 -95 -65 -228 -27
-276 79 -32 69 -19 175 28 227 49 55 158 74 228 38 29 -15 42 -17 52 -9 21 18
16 25 -36 48 -57 24 -137 27 -193 7z"/>
<path d="M6408 1241 c-53 -17 -98 -53 -126 -99 -23 -41 -27 -58 -27 -127 0
-97 26 -152 93 -199 37 -26 54 -31 119 -35 91 -4 141 9 190 52 51 45 73 98 73
180 0 147 -76 227 -225 233 -38 2 -82 -1 -97 -5z m172 -53 c62 -32 93 -88 93
-172 0 -139 -99 -226 -223 -196 -110 26 -172 164 -125 278 44 103 152 142 255
90z"/>
<path d="M7559 1241 c-41 -13 -75 -39 -87 -67 -35 -75 8 -125 148 -173 107
-37 140 -61 140 -103 0 -85 -152 -113 -259 -47 -26 15 -36 17 -47 8 -23 -19
-16 -29 39 -54 42 -20 68 -25 132 -25 96 0 156 23 179 69 44 84 2 140 -144
190 -128 44 -159 76 -130 131 22 42 127 52 199 19 39 -17 46 -18 59 -5 36 35
-152 82 -229 57z"/>
<path d="M8623 1230 c-56 -34 -67 -83 -34 -155 l18 -41 -43 -29 c-59 -40 -80
-85 -65 -136 18 -60 60 -83 156 -87 69 -3 86 0 129 22 l49 25 52 -26 c50 -25
85 -26 85 -4 0 6 -22 20 -50 32 -27 12 -50 24 -50 27 0 3 11 19 24 36 13 17
35 55 50 84 l26 52 -29 0 c-22 0 -31 -6 -36 -22 -10 -35 -68 -118 -83 -118 -6
0 -44 31 -84 68 l-71 68 46 27 c75 44 102 96 81 152 -17 44 -116 59 -171 25z
m117 -30 c11 -11 20 -28 20 -37 0 -20 -84 -103 -104 -103 -16 0 -36 50 -36 91
0 32 40 69 76 69 13 0 33 -9 44 -20z m-59 -253 c30 -29 68 -63 84 -74 l30 -22
-45 -20 c-138 -63 -264 41 -164 135 19 19 37 34 38 34 2 0 27 -24 57 -53z"/>
<path d="M9808 1236 c-109 -39 -166 -129 -155 -246 12 -138 96 -209 246 -210
61 0 82 5 122 27 46 24 48 27 33 44 -15 16 -17 16 -49 -5 -95 -65 -228 -27
-276 79 -32 69 -19 175 28 227 49 55 158 74 228 38 29 -15 42 -17 52 -9 21 18
16 25 -36 48 -57 24 -137 27 -193 7z"/>
<path d="M10308 1241 c-53 -17 -98 -53 -126 -99 -23 -41 -27 -58 -27 -127 0
-97 26 -152 93 -199 37 -26 54 -31 119 -35 91 -4 141 9 190 52 51 45 73 98 73
180 0 147 -76 227 -225 233 -38 2 -82 -1 -97 -5z m172 -53 c62 -32 93 -88 93
-172 0 -139 -99 -226 -223 -196 -110 26 -172 164 -125 278 44 103 152 142 255
90z"/>
<path d="M11459 1241 c-41 -13 -75 -39 -87 -67 -35 -75 8 -125 148 -173 107
-37 140 -61 140 -103 0 -85 -152 -113 -259 -47 -26 15 -36 17 -47 8 -23 -19
-16 -29 39 -54 42 -20 68 -25 132 -25 96 0 156 23 179 69 44 84 2 140 -144
190 -128 44 -159 76 -130 131 22 42 127 52 199 19 39 -17 46 -18 59 -5 36 35
-152 82 -229 57z"/>
<path d="M14227 1234 c-189 -58 -213 -334 -37 -427 52 -27 61 -29 150 -25 71
3 103 9 128 23 l32 19 0 93 0 93 -90 0 c-72 0 -90 -3 -90 -15 0 -10 16 -15 63
-17 l62 -3 3 -62 c3 -55 1 -63 -20 -77 -67 -42 -192 -23 -246 38 -41 46 -56
97 -49 164 7 70 42 123 99 151 59 28 140 28 192 0 34 -18 41 -19 54 -6 13 13
11 17 -11 31 -57 38 -155 46 -240 20z"/>
<path d="M1860 1011 l0 -231 26 0 27 0 -5 200 c-3 111 -3 198 0 195 4 -3 40
-81 82 -173 101 -223 96 -223 199 6 43 95 80 175 82 177 2 2 2 -89 1 -201 l-4
-204 26 0 26 0 0 231 0 230 -37 -3 -38 -3 -75 -172 c-41 -95 -77 -172 -80
-173 -3 0 -39 78 -80 173 l-76 172 -37 3 -37 3 0 -230z"/>
<path d="M2520 1011 l0 -231 26 0 27 0 -5 200 c-3 111 -3 198 0 195 4 -3 40
-81 82 -173 101 -223 96 -223 199 6 43 95 80 175 82 177 2 2 2 -89 1 -201 l-4
-204 26 0 26 0 0 231 0 230 -37 -3 -38 -3 -75 -172 c-41 -95 -77 -172 -80
-173 -3 0 -39 78 -80 173 l-76 172 -37 3 -37 3 0 -230z"/>
<path d="M3162 1068 c3 -197 12 -225 84 -265 56 -32 182 -32 238 0 68 39 80
76 84 270 l4 167 -30 0 -31 0 -3 -174 -3 -175 -30 -31 c-52 -54 -144 -62 -201
-17 -46 36 -54 72 -54 242 l0 155 -31 0 -31 0 4 -172z"/>
<path d="M3760 1010 l0 -230 26 0 26 0 -4 200 c-2 110 -3 200 -1 200 1 0 17
-21 34 -47 18 -27 82 -117 143 -200 97 -134 114 -153 138 -153 l28 0 0 230 0
230 -26 0 -26 0 3 -195 c2 -107 2 -195 -1 -195 -3 0 -13 13 -23 29 -9 16 -71
103 -137 195 -109 150 -124 166 -150 166 l-30 0 0 -230z"/>
<path d="M4340 1010 l0 -230 25 0 25 0 0 230 0 230 -25 0 -25 0 0 -230z"/>
<path d="M5131 1024 c-51 -119 -95 -223 -98 -230 -4 -10 4 -14 25 -14 27 0 31
5 58 75 l29 75 111 0 112 0 29 -72 c27 -67 32 -73 61 -76 28 -3 31 -1 24 16
-4 10 -47 114 -97 230 l-90 212 -36 0 -36 0 -92 -216z m178 55 c23 -58 41
-108 41 -112 0 -4 -40 -7 -90 -7 -62 0 -90 4 -90 12 0 23 84 228 91 221 4 -5
25 -56 48 -114z"/>
<path d="M5500 1225 c0 -11 19 -15 88 -17 l87 -3 3 -212 2 -213 25 0 25 0 2
213 3 212 88 3 c68 2 87 6 87 17 0 13 -32 15 -205 15 -173 0 -205 -2 -205 -15z"/>
<path d="M6050 1010 l0 -230 25 0 25 0 0 230 0 230 -25 0 -25 0 0 -230z"/>
<path d="M6900 1010 l0 -230 26 0 26 0 -4 200 c-2 110 -3 200 -1 200 1 0 17
-21 34 -47 18 -27 82 -117 143 -200 97 -134 114 -153 138 -153 l28 0 0 230 0
230 -26 0 -26 0 3 -195 c2 -107 2 -195 -1 -195 -3 0 -13 13 -23 29 -9 16 -71
103 -137 195 -109 150 -124 166 -150 166 l-30 0 0 -230z"/>
<path d="M10790 1010 l0 -230 26 0 26 0 -4 200 c-2 110 -3 200 -1 200 1 0 17
-21 34 -47 18 -27 82 -117 143 -200 97 -134 114 -153 138 -153 l28 0 0 230 0
230 -26 0 -26 0 3 -195 c2 -107 2 -195 -1 -195 -3 0 -13 13 -23 29 -9 16 -71
103 -137 195 -109 150 -124 166 -150 166 l-30 0 0 -230z"/>
<path d="M11852 1068 c3 -197 12 -225 84 -265 56 -32 182 -32 238 0 68 39 80
76 84 270 l4 167 -30 0 -31 0 -3 -174 -3 -175 -30 -31 c-52 -54 -144 -62 -201
-17 -46 36 -54 72 -54 242 l0 155 -31 0 -31 0 4 -172z"/>
<path d="M12450 1010 l0 -230 155 0 c148 0 155 1 155 20 0 19 -7 20 -130 20
l-130 0 0 210 0 210 -25 0 -25 0 0 -230z"/>
<path d="M12730 1225 c0 -11 19 -15 88 -17 l87 -3 3 -212 2 -213 25 0 25 0 2
213 3 212 88 3 c68 2 87 6 87 17 0 13 -32 15 -205 15 -173 0 -205 -2 -205 -15z"/>
<path d="M13280 1010 l0 -230 25 0 25 0 0 230 0 230 -25 0 -25 0 0 -230z"/>
<path d="M13520 1010 l0 -230 26 0 26 0 -4 200 c-2 110 -3 200 -1 200 1 0 17
-21 34 -47 18 -27 82 -117 143 -200 97 -134 114 -153 138 -153 l28 0 0 230 0
230 -26 0 -26 0 3 -195 c2 -107 2 -195 -1 -195 -3 0 -13 13 -23 29 -9 16 -71
103 -137 195 -109 150 -124 166 -150 166 l-30 0 0 -230z"/>
<path d="M2061 421 c-44 -104 -84 -196 -87 -205 -5 -12 0 -16 19 -16 21 0 29
9 50 62 l25 63 100 3 100 3 25 -63 c21 -53 29 -64 52 -66 33 -4 37 -18 -64
218 -76 176 -81 185 -109 188 -29 3 -30 2 -111 -187z m152 51 c20 -54 37 -102
37 -105 0 -4 -36 -7 -80 -7 -44 0 -80 3 -80 7 0 12 75 203 80 203 3 0 22 -45
43 -98z"/>
<path d="M2470 405 c0 -198 1 -205 20 -205 19 0 20 8 22 177 l3 177 29 -45
c16 -24 72 -104 125 -176 83 -115 100 -133 124 -133 l27 0 0 205 0 205 -26 0
-26 0 4 -175 c1 -96 1 -175 -2 -175 -3 0 -16 17 -29 38 -13 20 -69 99 -123
175 -81 111 -104 137 -124 137 l-24 0 0 -205z"/>
<path d="M3300 405 l0 -205 145 0 c121 0 145 2 145 15 0 12 -23 15 -122 17
l-123 3 0 80 0 80 98 3 c76 2 97 6 97 17 0 11 -21 15 -97 17 l-98 3 0 70 0 70
118 3 c95 2 117 5 117 17 0 13 -24 15 -140 15 l-140 0 0 -205z"/>
<path d="M3720 406 c0 -202 0 -206 21 -206 20 0 21 3 17 179 -2 99 -1 177 2
174 3 -2 35 -71 71 -151 90 -197 90 -197 180 1 36 81 68 150 70 152 2 2 3 -77
0 -176 l-3 -179 26 0 26 0 0 205 0 205 -34 0 -33 0 -68 -155 c-37 -85 -71
-155 -74 -155 -3 0 -36 69 -72 153 -64 147 -67 152 -98 155 l-31 3 0 -205z"/>
<path d="M4300 406 c0 -198 1 -206 20 -206 17 0 19 8 22 82 l3 83 90 6 c131 8
185 43 185 119 0 81 -52 111 -207 118 l-113 5 0 -207z m235 150 c46 -30 45
-102 -2 -133 -19 -13 -48 -17 -107 -18 l-81 0 -3 74 c-4 107 -6 105 89 98 48
-3 89 -12 104 -21z"/>
<path d="M4760 405 l0 -205 135 0 c112 0 135 3 135 15 0 12 -22 15 -112 17
l-113 3 -3 188 c-2 179 -3 187 -22 187 -19 0 -20 -7 -20 -205z"/>
<path d="M5198 590 c-74 -40 -113 -127 -98 -222 17 -112 87 -168 210 -168 72
0 114 16 156 59 39 40 58 104 52 175 -6 71 -42 126 -100 155 -59 28 -167 29
-220 1z m199 -36 c47 -35 64 -68 70 -130 4 -49 0 -67 -19 -103 -31 -60 -66
-83 -130 -89 -44 -3 -59 0 -87 20 -62 42 -76 70 -76 156 0 88 19 126 77 156
43 22 129 17 165 -10z"/>
<path d="M5570 605 c0 -2 34 -60 75 -127 l75 -122 0 -78 c0 -77 0 -78 25 -78
25 0 25 1 25 83 l0 83 75 119 c55 90 70 121 59 123 -29 7 -41 -7 -98 -107 -32
-56 -61 -99 -66 -96 -4 3 -33 50 -64 105 -48 84 -61 100 -82 100 -13 0 -24 -2
-24 -5z"/>
<path d="M6020 405 l0 -205 145 0 c121 0 145 2 145 15 0 12 -23 15 -122 17
l-123 3 0 80 0 80 98 3 c76 2 97 6 97 17 0 11 -21 15 -97 17 l-98 3 0 70 0 70
118 3 c95 2 117 5 117 17 0 13 -24 15 -140 15 l-140 0 0 -205z"/>
<path d="M6440 405 l0 -205 145 0 c121 0 145 2 145 15 0 12 -23 15 -122 17
l-123 3 0 80 0 80 98 3 c76 2 97 6 97 17 0 11 -21 15 -97 17 l-98 3 0 70 0 70
118 3 c95 2 117 5 117 17 0 13 -24 15 -140 15 l-140 0 0 -205z"/>
<path d="M7248 590 c-74 -40 -113 -127 -98 -222 17 -112 87 -168 210 -168 72
0 114 16 156 59 39 40 58 104 52 175 -6 71 -42 126 -100 155 -59 28 -167 29
-220 1z m199 -36 c47 -35 64 -68 70 -130 4 -49 0 -67 -19 -103 -31 -60 -66
-83 -130 -89 -44 -3 -59 0 -87 20 -62 42 -76 70 -76 156 0 88 19 126 77 156
43 22 129 17 165 -10z"/>
<path d="M7681 503 c16 -60 41 -152 55 -206 27 -96 27 -97 58 -97 l31 0 49
163 c27 89 53 168 57 176 4 10 13 -6 24 -45 9 -32 33 -111 54 -174 36 -112 38
-115 68 -118 29 -3 33 0 42 35 69 262 92 350 96 361 3 9 -3 12 -22 10 -27 -3
-29 -7 -69 -176 -23 -95 -44 -176 -47 -178 -3 -3 -13 21 -22 53 -9 32 -34 112
-55 178 -34 107 -41 120 -63 123 -23 3 -27 -4 -65 -125 -22 -70 -46 -148 -53
-173 -7 -25 -15 -49 -19 -53 -4 -4 -26 74 -50 173 -44 179 -44 180 -71 180
l-27 0 29 -107z"/>
<path d="M8330 405 c0 -198 1 -205 20 -205 19 0 20 8 22 177 l3 177 29 -45
c16 -24 72 -104 125 -176 83 -115 100 -133 124 -133 l27 0 0 205 0 205 -26 0
-26 0 4 -175 c1 -96 1 -175 -2 -175 -3 0 -16 17 -29 38 -13 20 -69 99 -123
175 -81 111 -104 137 -124 137 l-24 0 0 -205z"/>
<path d="M8850 405 l0 -205 145 0 c121 0 145 2 145 15 0 12 -23 15 -122 17
l-123 3 0 80 0 80 98 3 c76 2 97 6 97 17 0 11 -21 15 -97 17 l-98 3 0 70 0 70
118 3 c95 2 117 5 117 17 0 13 -24 15 -140 15 l-140 0 0 -205z"/>
<path d="M9270 405 l0 -208 103 5 c180 10 247 66 247 210 0 47 -6 71 -25 104
-37 63 -90 85 -220 92 l-105 5 0 -208z m216 149 c61 -31 79 -64 79 -147 0 -58
-4 -78 -22 -103 -32 -44 -83 -66 -162 -68 l-66 -1 -3 160 c-1 87 0 166 3 173
8 20 121 11 171 -14z"/>
<path d="M10171 600 c-82 -35 -122 -98 -122 -195 0 -127 67 -197 197 -203 60
-3 81 0 119 18 25 12 45 26 45 30 0 20 -24 20 -66 0 -55 -27 -131 -24 -172 7
-50 37 -66 70 -70 141 -3 57 0 72 20 101 36 53 71 74 130 78 39 3 63 -1 90
-15 31 -16 40 -17 48 -6 9 10 5 17 -16 31 -32 21 -164 29 -203 13z"/>
<path d="M10588 590 c-74 -40 -113 -127 -98 -222 17 -112 87 -168 210 -168 72
0 114 16 156 59 39 40 58 104 52 175 -6 71 -42 126 -100 155 -59 28 -167 29
-220 1z m199 -36 c47 -35 64 -68 70 -130 4 -49 0 -67 -19 -103 -31 -60 -66
-83 -130 -89 -44 -3 -59 0 -87 20 -62 42 -76 70 -76 156 0 88 19 126 77 156
43 22 129 17 165 -10z"/>
<path d="M11050 406 c0 -202 0 -206 21 -206 20 0 21 3 17 179 -2 99 -1 177 2
174 3 -2 35 -71 71 -151 90 -197 90 -197 180 1 36 81 68 150 70 152 2 2 3 -77
0 -176 l-3 -179 26 0 26 0 0 205 0 205 -34 0 -33 0 -68 -155 c-37 -85 -71
-155 -74 -155 -3 0 -36 69 -72 153 -64 147 -67 152 -98 155 l-31 3 0 -205z"/>
<path d="M11630 406 c0 -198 1 -206 20 -206 17 0 19 8 22 82 l3 83 90 6 c131
8 185 43 185 119 0 81 -52 111 -207 118 l-113 5 0 -207z m235 150 c46 -30 45
-102 -2 -133 -19 -13 -48 -17 -107 -18 l-81 0 -3 74 c-4 107 -6 105 89 98 48
-3 89 -12 104 -21z"/>
<path d="M12061 421 c-44 -104 -84 -196 -87 -205 -5 -12 0 -16 19 -16 21 0 29
9 50 62 l25 63 100 3 100 3 25 -63 c21 -53 29 -64 52 -66 33 -4 37 -18 -64
218 -76 176 -81 185 -109 188 -29 3 -30 2 -111 -187z m152 51 c20 -54 37 -102
37 -105 0 -4 -36 -7 -80 -7 -44 0 -80 3 -80 7 0 12 75 203 80 203 3 0 22 -45
43 -98z"/>
<path d="M12480 405 c0 -198 1 -205 20 -205 19 0 20 8 22 177 l3 177 29 -45
c16 -24 72 -104 125 -176 83 -115 100 -133 124 -133 l27 0 0 205 0 205 -26 0
-26 0 4 -175 c1 -96 1 -175 -2 -175 -3 0 -16 17 -29 38 -13 20 -69 99 -123
175 -81 111 -104 137 -124 137 l-24 0 0 -205z"/>
<path d="M12930 605 c0 -2 34 -60 75 -127 l75 -122 0 -78 c0 -77 0 -78 25 -78
25 0 25 1 25 83 l0 83 75 119 c55 90 70 121 59 123 -29 7 -41 -7 -98 -107 -32
-56 -61 -99 -66 -96 -4 3 -33 50 -64 105 -48 84 -61 100 -82 100 -13 0 -24 -2
-24 -5z"/>
</g>
</svg>
