<?xml version="1.0" standalone="no"?>
<!DOCTYPE svg PUBLIC "-//W3C//DTD SVG 20010904//EN"
 "http://www.w3.org/TR/2001/REC-SVG-20010904/DTD/svg10.dtd">
<svg version="1.0" xmlns="http://www.w3.org/2000/svg"
 width="1523.000000pt" height="495.000000pt" viewBox="0 0 1523.000000 495.000000"
 preserveAspectRatio="xMidYMid meet">

<g transform="translate(0.000000,495.000000) scale(0.100000,-0.100000)"
fill="#000000" stroke="none">
<path d="M2505 4919 c-1142 -80 -2012 -300 -2315 -585 -108 -102 -139 -193
-101 -294 51 -135 231 -267 522 -380 l99 -38 0 42 0 43 -62 23 c-188 67 -352
187 -378 275 -19 66 0 118 69 185 256 250 1209 453 2413 513 37 1 69 5 70 7 2
3 2 53 0 113 l-3 107 -97 -1 c-53 -1 -151 -6 -217 -10z"/>
<path d="M1030 3572 l0 -39 58 -16 c119 -34 609 -127 664 -127 4 0 8 20 8 45
0 25 -2 45 -4 45 -45 0 -511 84 -703 127 -21 5 -23 2 -23 -35z"/>
<path d="M2070 3396 l0 -44 48 -6 c82 -11 275 -27 278 -24 2 2 -18 27 -44 55
l-47 51 -117 7 -118 6 0 -45z"/>
<path d="M2805 3380 c3 -5 15 -10 26 -10 10 0 19 5 19 10 0 6 -12 10 -26 10
-14 0 -23 -4 -19 -10z"/>
<path d="M8479 3342 c32 -45 41 -49 126 -55 60 -3 83 -1 93 9 17 19 15 22 -15
26 -20 2 -28 9 -28 23 0 18 -8 20 -98 23 l-99 3 21 -29z"/>
<path d="M8720 3326 l0 -44 128 -6 c70 -4 139 -9 155 -11 26 -4 27 -3 27 44
l0 48 -82 6 c-46 4 -116 7 -155 7 l-73 0 0 -44z"/>
<path d="M9332 3289 l3 -44 110 -11 c131 -14 478 -60 554 -74 30 -6 56 -10 58
-10 2 0 3 20 3 44 0 40 -3 45 -27 50 -98 20 -472 70 -621 82 l-83 7 3 -44z"/>
<path d="M10380 3131 c0 -38 1 -39 43 -46 23 -3 51 -10 62 -14 11 -5 58 -19
105 -30 291 -74 527 -178 627 -275 107 -106 108 -185 2 -288 -126 -123 -449
-246 -879 -333 -394 -80 -873 -139 -1335 -165 -110 -6 -215 -14 -234 -16 l-34
-5 7 -52 c3 -29 6 -78 6 -109 l0 -58 73 0 c98 0 441 26 672 51 1065 114 1830
372 1966 664 26 57 25 146 -3 204 -66 137 -290 277 -624 391 -129 44 -409 120
-442 120 -7 0 -12 -16 -12 -39z"/>
</g>
</svg>
